<svg width="211" height="90" viewBox="0 0 211 90" fill="none" xmlns="http://www.w3.org/2000/svg">
<path d="M11.9032 55.808C11.4552 55.808 11.1672 55.52 11.0392 54.944C11.0392 53.856 11.8072 52.608 13.3432 51.2C14.8792 49.792 16.0952 48.896 16.9912 48.512C17.9512 48.128 21.0552 47.872 26.3032 47.744L27.6473 46.208C47.1033 23.744 60.6073 12.512 68.1593 12.512C68.7992 12.448 69.5352 12.416 70.3673 12.416C74.7833 12.416 76.9913 13.472 76.9913 15.584C76.9913 15.968 76.5753 16.992 75.7432 18.656L71.4233 27.296C69.3753 31.392 67.3913 35.552 65.4713 39.776C55.1033 62.624 49.0873 77.6 47.4233 84.704C47.4233 85.216 46.7513 85.472 45.4073 85.472C44.1273 85.472 42.5592 84.736 40.7032 83.264C38.8472 81.856 37.9193 80.608 37.9193 79.52C37.9193 77.536 39.4873 73.792 42.6233 68.288C45.7592 62.784 47.3272 59.2 47.3272 57.536C47.3272 55.296 42.9752 54.176 34.2712 54.176C32.9913 54.176 31.0073 54.24 28.3193 54.368L24.6712 59.168C20.1912 65.184 15.9032 72.64 11.8072 81.536C11.1032 83.136 8.95925 83.936 5.37525 83.936C1.79125 83.936 -0.000751615 83.424 -0.000751615 82.4C-0.000751615 81.696 1.98325 78.624 5.95125 73.184C9.98325 67.68 14.7512 61.6 20.2552 54.944C19.2952 55.072 18.0792 55.2 16.6072 55.328C15.1352 55.456 13.9832 55.584 13.1512 55.712C12.3832 55.776 11.9672 55.808 11.9032 55.808ZM51.7432 43.424C54.2393 40.416 56.0953 37.376 57.3113 34.304C58.5913 31.232 59.2313 29.152 59.2313 28.064C59.2313 26.976 58.6873 26.432 57.5992 26.432C55.6793 26.432 52.5113 28.48 48.0953 32.576C43.6793 36.608 38.8793 41.664 33.6953 47.744L44.1593 47.936C46.7192 47.936 49.2472 46.432 51.7432 43.424ZM90.249 67.808C89.033 67.808 88.105 67.2 87.465 65.984C86.825 64.704 86.505 63.488 86.505 62.336C86.505 61.12 86.889 59.744 87.657 58.208C87.657 57.376 87.337 56.96 86.697 56.96C84.201 56.96 81.353 58.464 78.153 61.472C74.953 64.416 72.265 67.488 70.089 70.688C67.913 73.824 65.929 76.992 64.137 80.192C63.049 82.112 60.809 83.072 57.417 83.072C55.689 83.072 54.825 82.688 54.825 81.92C54.825 80.192 57.961 73.76 64.233 62.624C70.569 51.424 74.761 45.44 76.809 44.672C78.217 43.968 79.785 43.616 81.513 43.616C83.305 43.616 84.201 44 84.201 44.768C84.201 45.472 83.465 46.88 81.993 48.992C80.521 51.104 79.785 52.448 79.785 53.024C79.785 53.6 80.009 53.888 80.457 53.888C80.713 53.888 81.417 53.504 82.569 52.736C85.385 50.624 88.841 48.448 92.937 46.208L93.801 45.056C95.337 43.136 97.545 42.176 100.425 42.176C103.369 42.176 104.841 42.752 104.841 43.904C104.713 44.224 104.393 44.736 103.881 45.44C98.825 52.352 94.569 59.584 91.113 67.136C90.857 67.584 90.569 67.808 90.249 67.808ZM141.634 18.656L146.338 18.464C146.978 18.464 147.298 18.592 147.298 18.848C147.298 19.104 147.234 19.424 147.106 19.808C146.978 20.192 146.69 20.672 146.242 21.248C145.858 21.824 145.378 22.336 144.802 22.784C143.266 24 141.346 24.608 139.042 24.608C136.802 24.608 135.138 24.672 134.05 24.8C133.026 24.928 132.13 25.248 131.362 25.76C130.594 26.272 130.082 26.656 129.826 26.912C129.57 27.168 129.122 27.808 128.482 28.832C127.842 29.856 127.394 30.56 127.138 30.944C123.746 35.68 118.242 44.608 110.626 57.728C103.074 70.848 98.3698 80.992 96.5138 88.16C96.3218 88.8 95.7138 89.12 94.6898 89.12C93.7298 89.12 92.3858 88.288 90.6578 86.624C88.9298 84.96 88.0658 83.264 88.0658 81.536C88.0658 79.808 90.6578 74.656 95.8418 66.08C101.09 57.504 106.338 49.088 111.586 40.832C116.834 32.512 119.458 27.904 119.458 27.008C119.458 26.048 119.074 25.472 118.306 25.28C117.538 25.024 116.194 24.896 114.274 24.896H111.106C110.274 24.896 109.858 24.512 109.858 23.744C109.858 22.976 110.21 22.176 110.914 21.344C111.682 20.448 112.802 19.68 114.274 19.04C115.81 18.4 117.346 17.76 118.882 17.12C120.482 16.48 122.53 15.04 125.026 12.8C127.586 10.56 130.146 7.68 132.706 4.16C134.306 1.984 137.058 0.895994 140.962 0.895994C142.306 0.895994 142.978 1.31199 142.978 2.144C142.978 2.656 141.538 4.992 138.658 9.152C135.778 13.312 134.338 15.936 134.338 17.024C134.338 18.048 135.298 18.56 137.218 18.56C137.986 18.624 139.458 18.656 141.634 18.656ZM111.661 84.896C110.765 84.896 109.773 84.32 108.685 83.168C107.597 82.08 107.053 80.736 107.053 79.136C107.053 78.24 109.133 73.728 113.293 65.6C117.517 57.408 119.693 51.872 119.821 48.992C119.821 48.096 120.397 47.264 121.549 46.496C123.597 45.28 126.637 44.672 130.669 44.672C131.437 44.672 132.237 44.832 133.069 45.152C133.965 45.408 134.413 45.792 134.413 46.304C134.413 46.56 134.317 46.784 134.125 46.976C131.693 50.048 128.141 55.584 123.469 63.584C118.797 71.584 115.277 78.08 112.909 83.072C112.589 84.288 112.173 84.896 111.661 84.896ZM132.685 39.296C129.869 39.296 128.397 38.176 128.269 35.936V35.84C128.269 33.92 129.197 32.352 131.053 31.136C132.973 29.92 134.861 29.312 136.717 29.312C139.533 29.312 141.005 30.432 141.133 32.672C141.133 34.592 140.205 36.192 138.349 37.472C136.493 38.688 134.605 39.296 132.685 39.296ZM118.384 84.512C118.384 84 118.736 83.68 119.44 83.552C123.92 83.552 128.688 82.112 133.744 79.232C138.864 76.352 141.424 73.344 141.424 70.208C141.424 67.904 139.888 65.696 136.816 63.584C133.744 61.408 132.208 59.136 132.208 56.768C132.208 53.248 134.448 50.208 138.928 47.648C143.408 45.024 148.496 43.712 154.192 43.712C155.216 43.712 155.888 43.744 156.208 43.808C156.528 43.808 156.816 43.616 157.072 43.232C157.392 42.784 157.744 42.304 158.128 41.792C158.512 41.28 159.216 40.832 160.24 40.448C161.264 40 162.48 39.776 163.888 39.776C167.152 39.776 168.784 40.256 168.784 41.216C168.784 41.408 168.752 41.568 168.688 41.696C167.664 42.592 165.84 44.8 163.216 48.32C160.592 51.84 158.672 55.136 157.456 58.208C157.2 58.784 156.624 59.072 155.728 59.072C154.896 59.072 154.064 58.592 153.232 57.632C152.4 56.608 151.984 55.648 151.984 54.752C151.984 53.792 152.144 52.8 152.464 51.776C152.784 50.688 152.944 50.048 152.944 49.856C152.944 49.024 152.432 48.608 151.408 48.608C149.424 48.608 147.344 49.216 145.168 50.432C143.056 51.584 142 53.28 142 55.52C142 57.696 143.6 59.904 146.8 62.144C148.016 63.04 149.104 64.192 150.064 65.6C151.088 67.008 151.6 68.48 151.6 70.016C151.6 74.368 148.752 78.304 143.056 81.824C137.36 85.408 131.184 87.2 124.528 87.2C120.752 87.2 118.704 86.304 118.384 84.512ZM204.532 18.656L209.236 18.464C209.876 18.464 210.196 18.592 210.196 18.848C210.196 19.104 210.132 19.424 210.004 19.808C209.876 20.192 209.588 20.672 209.14 21.248C208.756 21.824 208.276 22.336 207.7 22.784C206.164 24 204.244 24.608 201.94 24.608C199.7 24.608 198.036 24.672 196.948 24.8C195.924 24.928 195.028 25.248 194.26 25.76C193.492 26.272 192.98 26.656 192.724 26.912C192.468 27.168 192.02 27.808 191.38 28.832C190.74 29.856 190.292 30.56 190.036 30.944C186.644 35.68 181.14 44.608 173.524 57.728C165.972 70.848 161.268 80.992 159.412 88.16C159.22 88.8 158.612 89.12 157.588 89.12C156.628 89.12 155.284 88.288 153.556 86.624C151.828 84.96 150.964 83.264 150.964 81.536C150.964 79.808 153.556 74.656 158.74 66.08C163.988 57.504 169.236 49.088 174.484 40.832C179.732 32.512 182.356 27.904 182.356 27.008C182.356 26.048 181.972 25.472 181.204 25.28C180.436 25.024 179.092 24.896 177.172 24.896H174.004C173.172 24.896 172.756 24.512 172.756 23.744C172.756 22.976 173.108 22.176 173.812 21.344C174.58 20.448 175.7 19.68 177.172 19.04C178.708 18.4 180.244 17.76 181.78 17.12C183.38 16.48 185.428 15.04 187.924 12.8C190.484 10.56 193.044 7.68 195.604 4.16C197.204 1.984 199.956 0.895994 203.86 0.895994C205.204 0.895994 205.876 1.31199 205.876 2.144C205.876 2.656 204.436 4.992 201.556 9.152C198.676 13.312 197.236 15.936 197.236 17.024C197.236 18.048 198.196 18.56 200.116 18.56C200.884 18.624 202.356 18.656 204.532 18.656Z" fill="#F2994A"/>
</svg>
